<svg width="60" height="60" viewBox="0 0 60 60" fill="none" xmlns="http://www.w3.org/2000/svg">
<g id="&#208;&#154;&#208;&#190;&#208;&#188;&#208;&#176;&#208;&#189;&#208;&#180;&#208;&#176; &#208;&#191;&#209;&#128;&#208;&#190;&#209;&#132;&#208;&#181;&#209;&#129;&#209;&#129;&#208;&#184;&#208;&#190;&#208;&#189;&#208;&#176;&#208;&#187;&#208;&#190;&#208;&#178;">
<path id="Vector" d="M55.1145 38.223C53.557 36.6293 51.7266 35.3473 49.7074 34.4238C49.7074 34.5762 49.7039 34.6348 49.6992 34.7051C49.5223 38.2289 47.0156 41.1363 43.6734 41.9074V44.6379C43.6734 45.6094 42.8859 46.3957 41.9156 46.3957C40.9453 46.3957 40.1578 45.6094 40.1578 44.6379V41.9086C39.1451 41.6764 38.19 41.2415 37.35 40.6301C38.8857 43.5411 39.6875 46.783 39.6855 50.0742V53.8957H58.2422C59.2125 53.8957 60 53.141 60 52.2105V50.0742C60 45.6551 58.2645 41.4457 55.1145 38.223ZM52.3875 46.7297H51.8566V47.2594C51.8566 48.2309 51.0691 49.0172 50.0988 49.0172C49.1285 49.0172 48.341 48.2309 48.341 47.2594V46.7297H47.8102C46.8398 46.7297 46.0523 45.9422 46.0523 44.9719C46.0523 44.0004 46.8398 43.2141 47.8102 43.2141H48.341V42.6832C48.341 41.7117 49.1285 40.9254 50.0988 40.9254C51.0691 40.9254 51.8566 41.7117 51.8566 42.6832V43.2141H52.3875C53.3578 43.2141 54.1453 44.0004 54.1453 44.9719C54.1453 45.9422 53.3578 46.7297 52.3875 46.7297ZM10.2973 34.6547C10.2938 34.5914 10.2926 34.5527 10.2914 34.4262C7.575 35.6695 5.20312 37.5598 3.41133 39.941C1.18008 42.9023 0 46.4098 0 50.0742V52.2105C0 53.141 0.7875 53.8957 1.75781 53.8957H16.3277V41.9086C12.9997 41.1432 10.4538 38.2304 10.2973 34.6547ZM30 37.0324C28.7505 35.9798 27.3636 35.1022 25.8773 34.4238C25.8773 34.5762 25.8738 34.6348 25.8691 34.7051C25.6922 38.2289 23.1855 41.1363 19.8434 41.9074V53.8957H36.1699V50.0742C36.1699 44.9156 33.8086 40.2211 30 37.0324ZM28.5574 46.7297H28.0266V47.2594C28.0266 48.2309 27.2391 49.0172 26.2688 49.0172C25.2984 49.0172 24.5109 48.2309 24.5109 47.2594V46.7297H23.9801C23.0098 46.7297 22.2223 45.9422 22.2223 44.9719C22.2223 44.0004 23.0098 43.2141 23.9801 43.2141H24.5109V42.6832C24.5109 41.7117 25.2984 40.9254 26.2688 40.9254C27.2391 40.9254 28.0266 41.7117 28.0266 42.6832V43.2141H28.5574C29.5277 43.2141 30.3152 44.0004 30.3152 44.9719C30.3152 45.9422 29.5277 46.7297 28.5574 46.7297Z" fill="#389DAC"/>
<path id="Vector_2" d="M37.6359 33.9434C37.6359 34.4672 37.6359 34.4297 37.6395 34.493C37.7344 36.7723 39.6129 38.5922 41.9145 38.5922H41.9156C44.2184 38.5899 46.0945 36.7723 46.1895 34.493C46.1941 34.4344 46.1953 34.4672 46.1953 33.9422C43.4375 34.9242 40.3789 34.9201 37.6359 33.9434ZM22.3594 34.493C22.3641 34.4344 22.3652 34.4672 22.3652 33.9422C19.6075 34.9242 16.5466 34.9201 13.8059 33.9434C13.8059 34.4672 13.8059 34.4297 13.8094 34.493C13.9043 36.7723 15.7828 38.5922 18.0844 38.5922H18.0855C20.3883 38.5899 22.2645 36.7723 22.3594 34.493ZM51.1207 11.8535C51.1207 8.68243 48.5402 6.10431 45.3703 6.10431H38.4586C35.2887 6.10431 32.7094 8.68243 32.7094 11.8535V13.6934H51.1207V11.8535ZM41.9145 31.1613H41.9156C46.9488 31.1602 51.1207 27.0961 51.1207 21.9551V17.209H32.7094V21.9551C32.7094 27.0574 36.8461 31.1613 41.9145 31.1613ZM27.2906 11.8535C27.2906 8.68243 24.7102 6.10431 21.5402 6.10431H14.6285C11.4586 6.10431 8.8793 8.68243 8.8793 11.8535V13.6934H27.2906V11.8535ZM18.0844 31.1613H18.0855C23.1188 31.1602 27.2906 27.0961 27.2906 21.9551V17.209H8.8793V21.9551C8.8793 27.0574 13.016 31.1613 18.0844 31.1613Z" fill="#389DAC"/>
</g>
</svg>
