<svg width="60" height="60" viewBox="0 0 60 60" fill="none" xmlns="http://www.w3.org/2000/svg">
<path d="M42.0026 53.0107H17.9974C17.4887 53.0107 17.0741 53.4243 17.0741 53.934C17.0741 54.4437 17.4887 54.8573 17.9974 54.8573H42.0026C42.5123 54.8573 42.9259 54.4437 42.9259 53.934C42.9259 53.4243 42.5123 53.0107 42.0026 53.0107ZM30 38.2382H4.14813V41.9304C4.14813 42.9497 4.97718 43.7779 5.99568 43.7779H54.0044C55.0238 43.7779 55.8519 42.9497 55.8519 41.9304V38.2382H53.082H30ZM32.7699 41.9314H27.2301C26.7205 41.9314 26.3068 41.5187 26.3068 41.0081C26.3068 40.4974 26.7205 40.0848 27.2301 40.0848H32.7699C33.2795 40.0848 33.6932 40.4974 33.6932 41.0081C33.6932 41.5187 33.2795 41.9314 32.7699 41.9314ZM24.3403 51.1641H35.6587C34.5222 49.9057 33.8519 48.0296 33.7181 45.6244H26.2811C26.1471 48.0296 25.4778 49.9057 24.3403 51.1641ZM5.99471 7.77001C5.99468 7.64875 6.01853 7.52867 6.06492 7.41664C6.11131 7.3046 6.17932 7.20281 6.26506 7.11706C6.3508 7.03132 6.4526 6.96331 6.56463 6.91693C6.67667 6.87054 6.79675 6.84668 6.918 6.84672H53.082C53.2032 6.84668 53.3233 6.87054 53.4354 6.91693C53.5474 6.96331 53.6492 7.03132 53.7349 7.11706C53.8207 7.20281 53.8887 7.3046 53.9351 7.41664C53.9815 7.52867 54.0053 7.64875 54.0053 7.77001V36.3917H55.8519V6.84755C55.8519 5.82822 55.0236 5 54.0044 5H5.99568C4.97718 5.00014 4.14813 5.82836 4.14813 6.84755V36.3916H5.99471V7.77001Z" fill="#389DAC"/>
<path d="M34.6165 12.3861H48.4657V14.2327H34.6165V12.3861ZM44.7725 23.4655H48.4657V25.312H44.7725V23.4655ZM34.6165 23.4655H38.3096V25.312H34.6165V23.4655Z" fill="#389DAC"/>
<path d="M52.1587 8.69348H30.9233V36.3919H52.1587V8.69348ZM32.7699 22.5427C32.7698 22.4214 32.7937 22.3014 32.8401 22.1893C32.8865 22.0773 32.9545 21.9755 33.0402 21.8898C33.126 21.804 33.2278 21.736 33.3398 21.6896C33.4518 21.6432 33.5719 21.6194 33.6932 21.6194H39.2329C39.3542 21.6194 39.4743 21.6432 39.5863 21.6896C39.6983 21.736 39.8001 21.804 39.8859 21.8898C39.9716 21.9755 40.0396 22.0773 40.086 22.1893C40.1324 22.3014 40.1562 22.4214 40.1562 22.5427V26.2359C40.1562 26.3571 40.1324 26.4772 40.086 26.5892C40.0396 26.7013 39.9716 26.8031 39.8859 26.8888C39.8001 26.9746 39.6983 27.0426 39.5863 27.089C39.4743 27.1353 39.3542 27.1592 39.2329 27.1592H33.6932C33.5719 27.1592 33.4518 27.1353 33.3398 27.089C33.2278 27.0426 33.126 26.9746 33.0402 26.8888C32.9545 26.8031 32.8865 26.7013 32.8401 26.5892C32.7937 26.4772 32.7698 26.3571 32.7699 26.2359V22.5427ZM33.6932 29.0056H36.463C36.9727 29.0056 37.3863 29.4183 37.3863 29.9289C37.3863 30.4395 36.9727 30.8522 36.463 30.8522H33.6932C33.1835 30.8522 32.7699 30.4395 32.7699 29.9289C32.7699 29.4183 33.1835 29.0056 33.6932 29.0056ZM42.9259 34.5453H33.6932C33.1835 34.5453 32.7699 34.1327 32.7699 33.6221C32.7699 33.1114 33.1835 32.6988 33.6932 32.6988H42.9259C43.0472 32.6987 43.1673 32.7226 43.2793 32.769C43.3913 32.8154 43.4931 32.8834 43.5789 32.9691C43.6646 33.0548 43.7326 33.1566 43.779 33.2687C43.8254 33.3807 43.8493 33.5008 43.8492 33.6221C43.8493 33.7433 43.8254 33.8634 43.779 33.9754C43.7326 34.0875 43.6646 34.1893 43.5789 34.275C43.4931 34.3607 43.3913 34.4288 43.2793 34.4751C43.1673 34.5215 43.0472 34.5454 42.9259 34.5453ZM49.3888 34.5453H46.619C46.1093 34.5453 45.6957 34.1327 45.6957 33.6221C45.6957 33.1114 46.1093 32.6988 46.619 32.6988H49.3888C49.5101 32.6987 49.6302 32.7226 49.7422 32.769C49.8542 32.8154 49.956 32.8834 50.0418 32.9691C50.1275 33.0548 50.1955 33.1566 50.2419 33.2687C50.2883 33.3807 50.3122 33.5008 50.3121 33.6221C50.3122 33.7433 50.2883 33.8634 50.2419 33.9754C50.1955 34.0875 50.1275 34.1893 50.0418 34.275C49.956 34.3607 49.8542 34.4288 49.7422 34.4751C49.6302 34.5215 49.5101 34.5454 49.3888 34.5453ZM49.3888 30.8522H40.1561C39.6464 30.8522 39.2328 30.4395 39.2328 29.9289C39.2328 29.4183 39.6464 29.0056 40.1561 29.0056H49.3888C49.5101 29.0056 49.6302 29.0294 49.7422 29.0758C49.8542 29.1222 49.956 29.1902 50.0418 29.2759C50.1275 29.3617 50.1955 29.4635 50.2419 29.5755C50.2883 29.6876 50.3122 29.8076 50.3121 29.9289C50.3122 30.0501 50.2883 30.1702 50.2419 30.2823C50.1955 30.3943 50.1275 30.4961 50.0418 30.5818C49.956 30.6676 49.8542 30.7356 49.7422 30.782C49.6302 30.8284 49.5101 30.8522 49.3888 30.8522ZM50.3121 26.2357C50.3122 26.357 50.2883 26.4771 50.2419 26.5891C50.1955 26.7011 50.1275 26.8029 50.0418 26.8887C49.956 26.9744 49.8542 27.0424 49.7422 27.0888C49.6302 27.1352 49.5101 27.1591 49.3888 27.159H43.8491C43.7278 27.1591 43.6078 27.1352 43.4957 27.0888C43.3837 27.0424 43.2819 26.9744 43.1961 26.8887C43.1104 26.8029 43.0424 26.7011 42.996 26.5891C42.9496 26.4771 42.9258 26.357 42.9258 26.2357V22.5426C42.9258 22.4213 42.9496 22.3012 42.996 22.1892C43.0424 22.0772 43.1104 21.9754 43.1961 21.8896C43.2819 21.8039 43.3837 21.7359 43.4957 21.6895C43.6078 21.6431 43.7278 21.6192 43.8491 21.6193H49.3888C49.5101 21.6192 49.6302 21.6431 49.7422 21.6895C49.8542 21.7359 49.956 21.8039 50.0418 21.8896C50.1275 21.9754 50.1955 22.0772 50.2419 22.1892C50.2883 22.3012 50.3122 22.4213 50.3121 22.5426V26.2357ZM49.3888 19.7728H33.6932C33.1835 19.7728 32.7699 19.3602 32.7699 18.8495C32.7699 18.3389 33.1835 17.9263 33.6932 17.9263H49.389C49.5102 17.9263 49.6303 17.9501 49.7423 17.9966C49.8543 18.043 49.9561 18.111 50.0418 18.1967C50.1275 18.2825 50.1955 18.3843 50.2419 18.4963C50.2883 18.6083 50.3122 18.7284 50.3122 18.8496C50.3122 18.9709 50.2883 19.0909 50.2419 19.2029C50.1955 19.3149 50.1275 19.4167 50.0417 19.5025C49.956 19.5882 49.8542 19.6562 49.7422 19.7026C49.6301 19.749 49.5101 19.7728 49.3888 19.7728ZM50.3121 15.1564C50.3122 15.2776 50.2883 15.3977 50.2419 15.5097C50.1955 15.6218 50.1275 15.7236 50.0418 15.8093C49.956 15.8951 49.8542 15.9631 49.7422 16.0095C49.6302 16.0558 49.5101 16.0797 49.3888 16.0797H33.6932C33.5719 16.0797 33.4518 16.0558 33.3398 16.0095C33.2278 15.9631 33.126 15.8951 33.0402 15.8093C32.9545 15.7236 32.8865 15.6218 32.8401 15.5097C32.7937 15.3977 32.7698 15.2776 32.7699 15.1564V11.4632C32.7698 11.342 32.7937 11.2219 32.8401 11.1098C32.8865 10.9978 32.9545 10.896 33.0402 10.8103C33.126 10.7245 33.2278 10.6565 33.3398 10.6101C33.4518 10.5637 33.5719 10.5399 33.6932 10.5399H49.389C49.5102 10.5399 49.6303 10.5637 49.7423 10.6101C49.8544 10.6565 49.9562 10.7245 50.0419 10.8103C50.1277 10.896 50.1957 10.9978 50.2421 11.1098C50.2884 11.2219 50.3123 11.342 50.3123 11.4632L50.3121 15.1564ZM7.84131 36.3918H29.0767V8.69348H7.84131V36.3918ZM10.611 16.1757C10.611 13.1787 13.7355 12.3865 15.3882 12.3865C17.0095 12.3865 18.2088 13.163 18.9207 13.8019C19.6335 13.163 20.8319 12.3865 22.4532 12.3865C24.1059 12.3865 27.2303 13.1778 27.2303 16.1757V16.9846C27.2303 18.7462 26.7465 20.4182 25.8287 21.818C25.7646 21.915 25.6991 22.0111 25.6321 22.1061C25.321 22.5446 25.224 23.0847 25.3681 23.5861C25.7512 24.9221 25.9451 26.0697 25.9451 26.9995C25.9599 27.3236 26.054 30.5689 24.405 32.2944C24.2449 32.461 24.0437 32.5826 23.8216 32.6468C23.5996 32.7109 23.3646 32.7155 23.1402 32.66C22.6823 32.5456 22.3175 32.1938 22.1902 31.7423C21.2808 28.5301 19.8442 26.0133 18.92 26.0133C17.9957 26.0133 16.5601 28.5303 15.6507 31.7423C15.5867 31.9651 15.4653 32.1672 15.2986 32.3283C15.1318 32.4894 14.9256 32.6038 14.7007 32.66C14.2436 32.7727 13.759 32.6333 13.4349 32.2944C11.7859 30.5697 11.8792 27.3234 11.8958 26.9597C11.8948 26.0706 12.0887 24.923 12.4728 23.5879C12.6169 23.0856 12.5199 22.5455 12.2078 22.1061C12.1416 22.0124 12.077 21.9176 12.014 21.8217C11.095 20.4181 10.6102 18.747 10.6102 16.9854L10.611 16.1757Z" fill="#389DAC"/>
<path d="M13.7123 21.0333C14.353 21.9362 14.5479 23.0526 14.2478 24.0958C13.9172 25.2481 13.7419 26.2527 13.7419 26.9995C13.717 27.6143 13.7807 29.0344 14.2192 30.1156C15.0095 27.7382 16.5855 24.167 18.9196 24.167C21.2528 24.167 22.8288 27.7354 23.6191 30.1129C24.0595 29.0196 24.1223 27.5849 24.0992 27.0402C24.0982 26.2527 23.9237 25.249 23.5923 24.0958C23.2923 23.0526 23.487 21.9362 24.1269 21.036C24.1822 20.9586 24.2348 20.8817 24.2848 20.8052C25.0031 19.7084 25.3825 18.3863 25.3825 16.9847V16.1759C25.3825 14.2805 22.5915 14.2342 22.4512 14.2333C20.7348 14.2342 19.6878 15.67 19.6777 15.6838C19.6722 15.6911 19.6621 15.6939 19.6574 15.7014C19.65 15.7115 19.6481 15.7245 19.6398 15.7346C19.3461 16.1002 17.796 17.9264 16.1507 17.9264C15.6411 17.9264 15.2275 17.5138 15.2275 17.0031C15.2275 16.4925 15.6411 16.0799 16.1507 16.0799C16.5432 16.0799 17.159 15.6358 17.664 15.1538C17.1986 14.7392 16.4231 14.2333 15.3881 14.2333C15.2709 14.2342 12.4576 14.272 12.4576 16.1759V16.9847C12.4576 18.3863 12.838 19.7076 13.5572 20.8072C13.6053 20.8799 13.6579 20.9566 13.7123 21.0333Z" fill="#389DAC"/>
</svg>
