<svg width="60" height="60" viewBox="0 0 60 60" fill="none" xmlns="http://www.w3.org/2000/svg">
<g id="&#208;&#158;&#208;&#191;&#209;&#139;&#209;&#130; &#209;&#128;&#208;&#176;&#208;&#177;&#208;&#190;&#209;&#130;&#209;&#139;">
<path id="Vector" d="M35.9432 17.4616L41.2911 13.5744C41.5847 13.3617 41.8033 13.0615 41.9156 12.7167C42.028 12.372 42.0281 12.0005 41.9161 11.6557C41.8042 11.3108 41.5858 11.0103 41.2924 10.7974C40.999 10.5845 40.6457 10.4702 40.2832 10.4707H33.6721L31.6272 4.18455C31.5153 3.84023 31.2973 3.54018 31.0045 3.32739C30.7117 3.1146 30.359 3 29.9971 3C29.6352 3 29.2825 3.1146 28.9897 3.32739C28.6969 3.54018 28.4789 3.84023 28.367 4.18455L26.3239 10.4742H19.7144C19.3524 10.4741 18.9997 10.5887 18.7068 10.8015C18.4139 11.0143 18.1959 11.3144 18.084 11.6588C17.972 12.0032 17.972 12.3742 18.0839 12.7186C18.1957 13.0631 18.4137 13.3632 18.7065 13.5761L24.0544 17.4634L22.013 23.753C21.9005 24.0975 21.9 24.4688 22.0117 24.8136C22.1233 25.1585 22.3413 25.459 22.6343 25.6722C22.9274 25.8853 23.2804 26.0001 23.6427 26C24.005 25.9999 24.358 25.885 24.6509 25.6717L29.9988 21.7828L35.3467 25.67C35.9432 26.1021 36.7694 26.0987 37.3625 25.67C37.6556 25.457 37.8737 25.1566 37.9854 24.8119C38.0972 24.4671 38.097 24.0958 37.9847 23.7513L35.9432 17.4616Z" fill="#389DAC"/>
<path id="Vector_2" d="M18.1887 16.949H15.4839C15.1278 16.9486 14.781 16.8346 14.4931 16.6232C14.2052 16.4118 13.9909 16.1139 13.8809 15.7721L13.0423 13.1765C12.9321 12.8346 12.7176 12.5365 12.4293 12.3252C12.141 12.1138 11.7939 12 11.4376 12C11.0814 12 10.7342 12.1138 10.446 12.3252C10.1577 12.5365 9.94314 12.8346 9.83298 13.1765L8.99775 15.7721C8.88736 16.1139 8.67268 16.4116 8.38445 16.6227C8.09621 16.8338 7.7492 16.9474 7.3931 16.9473H4.68999C4.33319 16.9467 3.9854 17.0603 3.69658 17.2718C3.40777 17.4833 3.1928 17.7817 3.08256 18.1242C2.97232 18.4667 2.97249 18.8357 3.08304 19.1781C3.19359 19.5205 3.40883 19.8188 3.69783 20.03L5.88631 21.6326C6.17483 21.8442 6.38953 22.1426 6.49957 22.485C6.60962 22.8274 6.60935 23.1962 6.49881 23.5384L5.66358 26.134C5.17425 27.6583 6.97126 28.9868 8.26207 28.0381L10.4472 26.4338C10.7355 26.2222 11.0828 26.1082 11.4393 26.1082C11.7958 26.1082 12.1431 26.2222 12.4315 26.4338L14.6183 28.0381C15.8838 28.968 17.7162 27.6941 17.2151 26.134L16.3798 23.5401C16.2689 23.1977 16.2684 22.8285 16.3785 22.4858C16.4886 22.143 16.7035 21.8443 16.9923 21.6326L19.1808 20.03C19.4698 19.8188 19.6851 19.5205 19.7956 19.1781C19.9062 18.8357 19.9063 18.4667 19.7961 18.1242C19.6859 17.7817 19.4709 17.4833 19.1821 17.2718C18.8933 17.0603 18.5455 16.9467 18.1887 16.9473V16.949ZM43.6202 23.5384L42.7849 26.134C42.2956 27.6583 44.0977 28.9834 45.3834 28.0381L47.5685 26.4338C47.8569 26.2222 48.2042 26.1082 48.5607 26.1082C48.9172 26.1082 49.2645 26.2222 49.5528 26.4338L51.7396 28.0381C53.0338 28.9919 54.8274 27.6651 54.3364 26.134L53.5012 23.5401C53.3903 23.1977 53.3898 22.8285 53.4998 22.4858C53.6099 22.143 53.8248 21.8443 54.1137 21.6326L56.3022 20.03C56.5912 19.8188 56.8064 19.5205 56.917 19.1781C57.0275 18.8357 57.0277 18.4667 56.9174 18.1242C56.8072 17.7817 56.5922 17.4833 56.3034 17.2718C56.0146 17.0603 55.6668 16.9467 55.31 16.9473H52.6052C52.2494 16.947 51.9028 16.8332 51.6149 16.6222C51.327 16.4111 51.1126 16.1136 51.0023 15.7721L50.1653 13.1765C50.0552 12.8346 49.8406 12.5365 49.5523 12.3252C49.2641 12.1138 48.917 12 48.5607 12C48.2044 12 47.8573 12.1138 47.569 12.3252C47.2808 12.5365 47.0662 12.8346 46.956 13.1765L46.1208 15.7721C46.0104 16.1139 45.7957 16.4116 45.5075 16.6227C45.2193 16.8338 44.8722 16.9474 44.5161 16.9473H41.8113C41.4545 16.9467 41.1068 17.0603 40.8179 17.2718C40.5291 17.4833 40.3142 17.7817 40.2039 18.1242C40.0937 18.4667 40.0938 18.8357 40.2044 19.1781C40.3149 19.5205 40.5302 19.8188 40.8192 20.03L43.0077 21.6326C43.2962 21.8442 43.5109 22.1426 43.6209 22.485C43.731 22.8274 43.7307 23.1962 43.6202 23.5384ZM32.531 29.7498H27.469C24.6781 29.7498 22.407 32.0422 22.407 34.8592V51.8906C22.407 54.7076 24.6781 57 27.469 57H32.531C35.3219 57 37.593 54.7076 37.593 51.8906V34.8592C37.593 32.0422 35.3219 29.7498 32.531 29.7498ZM51.9353 36.5623H46.8733C44.0825 36.5623 41.8113 38.8548 41.8113 41.6718V51.8906C41.8113 54.7076 44.0825 57 46.8733 57H51.9353C54.7262 57 56.9973 54.7076 56.9973 51.8906V41.6718C56.9973 38.8548 54.7262 36.5623 51.9353 36.5623ZM13.1267 36.5623H8.06466C5.2738 36.5623 3.00265 38.8548 3.00265 41.6718V51.8906C3.00265 54.7076 5.2738 57 8.06466 57H13.1267C15.9175 57 18.1887 54.7076 18.1887 51.8906V41.6718C18.1887 38.8548 15.9175 36.5623 13.1267 36.5623Z" fill="#389DAC"/>
</g>
</svg>
