<svg width="60" height="60" viewBox="0 0 60 60" fill="none" xmlns="http://www.w3.org/2000/svg">
<path d="M30 24.6103C33.5346 24.6103 34.5273 27.7739 35.0605 29.4734C35.097 29.59 35.1394 29.7248 35.1835 29.8603C37.0804 28.0467 39.4926 22.2696 39.4926 17.9304C39.4926 15.281 37.3371 13.1255 34.6877 13.1255C33.2472 13.1255 32.0334 14.063 30.0001 14.063C27.9738 14.063 26.749 13.1255 25.3124 13.1255C22.6631 13.1255 20.5076 15.281 20.5076 17.9304C20.5076 22.264 22.9154 28.0426 24.8166 29.8604C24.8608 29.7249 24.9031 29.59 24.9397 29.4735C25.4728 27.7739 26.4654 24.6103 30 24.6103Z" fill="#389DAC"/>
<path d="M30 49C30 49 48 34.2379 48 20.3441C48 10.2729 39.9411 2 30 2C20.0589 2 12 10.2729 12 20.3441C12 34.2379 30 49 30 49ZM20.289 27.7523C18.9228 24.7325 18.1071 21.3139 18.1071 18.6074C18.1071 14.3579 21.5198 10.9007 25.7143 10.9007C27.6704 10.9007 28.8307 11.7691 30 11.7691C31.1646 11.7691 32.3342 10.9007 34.2856 10.9007C38.4801 10.9007 41.8928 14.3579 41.8928 18.6074C41.8928 21.3139 41.0771 24.7325 39.7109 27.7523C38.574 30.2653 36.7099 33.261 34.2857 33.261C32.4849 33.261 31.9281 31.4632 31.5597 30.2736C31.0064 28.4871 30.7003 28.0508 30 28.0508C29.2997 28.0508 28.9936 28.4871 28.4403 30.2736C28.0719 31.4632 27.5151 33.261 25.7143 33.261C23.2901 33.261 21.4259 30.2653 20.289 27.7523Z" fill="#389DAC"/>
<path d="M39.2469 45C35.4624 49.0506 32.2758 51.6429 32.112 51.7754C30.8806 52.7718 29.1196 52.7718 27.888 51.7754C27.7242 51.6429 24.5377 49.0506 20.7531 45C16.812 46.1487 14 48.1117 14 50.8453C14 53.0281 15.8712 54.9516 19.2689 56.2618C28.798 59.936 46 57.6247 46 50.8453C46 48.1117 43.188 46.1487 39.2469 45Z" fill="#389DAC"/>
</svg>
