<svg width="60" height="60" viewBox="0 0 60 60" fill="none" xmlns="http://www.w3.org/2000/svg">
<g id="Frame">
<g id="Group 5322">
<path id="Vector" d="M45.3703 36.5048V30.1262H57.238C58.1751 30.1262 58.9333 29.3679 58.9333 28.4308C58.9333 27.4937 58.1751 26.7354 57.238 26.7354H52.1518V25.04C52.1518 24.1029 51.3935 23.3446 50.4564 23.3446C49.5193 23.3446 48.761 24.1029 48.761 25.04V26.7354H45.3703V9.49016C45.3703 5.91233 42.4579 3 38.8801 3C37.1466 3 35.5158 3.67555 34.2907 4.90064L31.3826 7.80879C28.1259 5.72697 23.5187 6.08029 20.7276 8.87417C20.0654 9.53639 20.0654 10.6093 20.7276 11.2716L30.3172 20.8611C30.6483 21.1923 31.0821 21.3579 31.5158 21.3579C31.9495 21.3579 32.3834 21.1923 32.7144 20.8611C34.3155 19.2618 35.198 17.1326 35.198 14.8677C35.198 13.1791 34.7049 11.5684 33.7921 10.194L36.6881 7.29803C37.2643 6.72182 38.064 6.39077 38.8802 6.39077C40.5888 6.39077 41.9796 7.78155 41.9796 9.49016V33.5776C41.8773 33.5584 41.7806 33.517 41.675 33.517H31.8073V30.1263H36.8935C37.8306 30.1263 38.5888 29.368 38.5888 28.4309C38.5888 27.4938 37.8306 26.7355 36.8935 26.7355H26.7212C25.7841 26.7355 25.0258 27.4938 25.0258 28.4309C25.0258 29.368 25.7841 30.1263 26.7212 30.1263H28.4165V33.517H25.4264L18.8701 26.9309C18.7127 26.7727 18.5257 26.6471 18.3197 26.5613C18.1137 26.4755 17.8929 26.4312 17.6697 26.4309H17.668C17.4454 26.4309 17.2249 26.4747 17.0193 26.56C16.8136 26.6452 16.6267 26.7702 16.4694 26.9276L15.2608 28.1362L12.8666 25.742L14.0652 24.5434C14.7274 23.8811 14.7274 22.8082 14.0652 22.146L9.7464 17.8272C7.76291 15.8437 4.53772 15.8437 2.55424 17.8272C0.570749 19.8106 0.570749 23.0358 2.55424 25.0193L6.87306 29.3381C7.20422 29.6693 7.63802 29.8349 8.0717 29.8349C8.50537 29.8349 8.93928 29.6693 9.27033 29.3381L10.469 28.1395L12.8631 30.5336L11.6545 31.7422C11.3367 32.06 11.1577 32.4922 11.1577 32.9425C11.1577 33.3928 11.3382 33.8233 11.6561 34.1412L20.7423 43.1943C20.8996 43.3514 21.0862 43.476 21.2916 43.5609C21.497 43.6459 21.7171 43.6895 21.9394 43.6893H38.1895L50.2081 55.739C51.1701 56.701 52.4962 57.2523 53.8472 57.2523C56.6518 57.2523 58.9333 54.9708 58.9333 52.1662C58.9333 50.8152 58.382 49.4889 57.4185 48.5254L45.3703 36.5048Z" fill="#389DAC"/>
<path id="Vector_2" d="M40.2839 53.8616H35.1978V47.0801H25.0255V53.8616H19.9393C19.0022 53.8616 18.2439 54.6199 18.2439 55.557C18.2439 56.4941 19.0022 57.2524 19.9393 57.2524H40.2839C41.221 57.2524 41.9793 56.4941 41.9793 55.557C41.9793 54.6199 41.221 53.8616 40.2839 53.8616Z" fill="#389DAC"/>
</g>
</g>
</svg>
