<svg width="60" height="60" viewBox="0 0 60 60" fill="none" xmlns="http://www.w3.org/2000/svg">
<path d="M48.2812 31.875C48.2812 32.1236 48.1825 32.3621 48.0067 32.5379C47.8308 32.7137 47.5924 32.8125 47.3438 32.8125C47.0951 32.8125 46.8567 32.7137 46.6808 32.5379C46.505 32.3621 46.4062 32.1236 46.4062 31.875C46.4062 30.0102 45.6655 28.2218 44.3468 26.9032C43.0282 25.5845 41.2398 24.8438 39.375 24.8438C39.1264 24.8438 38.8879 24.745 38.7121 24.5692C38.5363 24.3933 38.4375 24.1549 38.4375 23.9062C38.4375 23.6576 38.5363 23.4192 38.7121 23.2433C38.8879 23.0675 39.1264 22.9688 39.375 22.9688C40.5825 22.9712 41.7701 22.6618 42.8229 22.0705C43.8757 21.4792 44.758 20.6261 45.3844 19.5938C43.834 18.3006 41.9761 17.4296 39.9904 17.065C38.0048 16.7004 35.9586 16.8545 34.05 17.5125C31.4264 18.4212 28.5736 18.4212 25.95 17.5125C14.7938 13.6313 5.50312 27.0656 13.0031 36.1781C16.2094 40.0687 16.4344 44.0063 18.3281 53.1094C18.5099 53.9834 18.9832 54.7697 19.6706 55.3394C20.3579 55.909 21.2185 56.2282 22.1111 56.2446C23.0036 56.2609 23.8753 55.9735 24.583 55.4294C25.2908 54.8853 25.7926 54.1168 26.0063 53.25L27.7031 46.3031C27.8273 45.7875 28.1213 45.3286 28.538 45.0003C28.9546 44.6721 29.4696 44.4936 30 44.4936C30.5304 44.4936 31.0454 44.6721 31.462 45.0003C31.8787 45.3286 32.1727 45.7875 32.2969 46.3031L33.9937 53.25C34.2074 54.1168 34.7092 54.8853 35.417 55.4294C36.1247 55.9735 36.9964 56.2609 37.8889 56.2446C38.7815 56.2282 39.6421 55.909 40.3294 55.3394C41.0168 54.7697 41.4901 53.9834 41.6719 53.1094C43.5469 43.8375 43.8469 39.9844 46.9969 36.1781C48.9459 33.8182 49.8977 30.7913 49.65 27.7406C48.7636 28.937 48.2839 30.386 48.2812 31.875ZM30 24.1125C26.7893 24.0518 23.6445 23.1915 20.85 21.6094C20.6393 21.4795 20.4886 21.2715 20.4306 21.0309C20.3727 20.7903 20.4122 20.5366 20.5406 20.325C21.8719 18.0938 26.4938 25.8563 38.175 20.0156C38.3821 19.9365 38.6105 19.9333 38.8197 20.0065C39.0289 20.0798 39.2054 20.2249 39.3178 20.416C39.4302 20.6071 39.4713 20.8318 39.4337 21.0503C39.3961 21.2688 39.2823 21.4668 39.1125 21.6094C36.3292 23.1855 33.1979 24.0456 30 24.1125ZM5.625 29.0625H2.8125C2.56386 29.0625 2.3254 29.1613 2.14959 29.3371C1.97377 29.5129 1.875 29.7514 1.875 30C1.875 30.2486 1.97377 30.4871 2.14959 30.6629C2.3254 30.8387 2.56386 30.9375 2.8125 30.9375H5.625C5.87364 30.9375 6.1121 30.8387 6.28791 30.6629C6.46373 30.4871 6.5625 30.2486 6.5625 30C6.5625 29.7514 6.46373 29.5129 6.28791 29.3371C6.1121 29.1613 5.87364 29.0625 5.625 29.0625ZM57.1875 29.0625H54.375C54.1264 29.0625 53.8879 29.1613 53.7121 29.3371C53.5363 29.5129 53.4375 29.7514 53.4375 30C53.4375 30.2486 53.5363 30.4871 53.7121 30.6629C53.8879 30.8387 54.1264 30.9375 54.375 30.9375H57.1875C57.4361 30.9375 57.6746 30.8387 57.8504 30.6629C58.0262 30.4871 58.125 30.2486 58.125 30C58.125 29.7514 58.0262 29.5129 57.8504 29.3371C57.6746 29.1613 57.4361 29.0625 57.1875 29.0625ZM30.9375 5.625V2.8125C30.9375 2.56386 30.8387 2.3254 30.6629 2.14959C30.4871 1.97377 30.2486 1.875 30 1.875C29.7514 1.875 29.5129 1.97377 29.3371 2.14959C29.1613 2.3254 29.0625 2.56386 29.0625 2.8125V5.625C29.0625 5.87364 29.1613 6.1121 29.3371 6.28791C29.5129 6.46373 29.7514 6.5625 30 6.5625C30.2486 6.5625 30.4871 6.46373 30.6629 6.28791C30.8387 6.1121 30.9375 5.87364 30.9375 5.625ZM8.4375 41.3719L6.00937 42.7781C5.79306 42.9024 5.63499 43.1076 5.56993 43.3485C5.50488 43.5893 5.53818 43.8462 5.6625 44.0625C5.78682 44.2788 5.99198 44.4369 6.23285 44.5019C6.47371 44.567 6.73056 44.5337 6.94687 44.4094L9.375 43.0031C9.59132 42.8788 9.74939 42.6736 9.81444 42.4328C9.87949 42.1919 9.8462 41.9351 9.72187 41.7188C9.59755 41.5024 9.39239 41.3444 9.15153 41.2793C8.91066 41.2143 8.65382 41.2476 8.4375 41.3719ZM51.1125 18.75C51.45 18.75 51.3375 18.75 54.0094 17.2219C54.2257 17.0976 54.3838 16.8924 54.4488 16.6515C54.5139 16.4107 54.4806 16.1538 54.3563 15.9375C54.2947 15.8304 54.2126 15.7365 54.1148 15.6611C54.0169 15.5857 53.9052 15.5303 53.7859 15.4981C53.545 15.433 53.2882 15.4663 53.0719 15.5906L50.625 16.9969C50.4428 17.0999 50.3004 17.261 50.2204 17.4544C50.1403 17.6478 50.1273 17.8624 50.1834 18.064C50.2394 18.2657 50.3614 18.4428 50.5298 18.5671C50.6981 18.6914 50.9033 18.7558 51.1125 18.75ZM16.9969 9.375C17.1212 9.59132 17.3264 9.74939 17.5672 9.81444C17.8081 9.87949 18.0649 9.8462 18.2812 9.72187C18.4976 9.59755 18.6556 9.39239 18.7207 9.15153C18.7857 8.91066 18.7524 8.65382 18.6281 8.4375L17.2219 6.00937C17.1603 5.90227 17.0783 5.80833 16.9804 5.73293C16.8825 5.65753 16.7708 5.60214 16.6515 5.56993C16.4107 5.50488 16.1538 5.53818 15.9375 5.6625C15.7212 5.78682 15.5631 5.99198 15.4981 6.23285C15.433 6.47371 15.4663 6.73056 15.5906 6.94687L16.9969 9.375ZM43.0031 9.375L44.4094 6.94687C44.4709 6.83977 44.5108 6.72158 44.5267 6.59907C44.5426 6.47655 44.5341 6.35211 44.5019 6.23285C44.4697 6.11358 44.4143 6.00183 44.3389 5.90397C44.2635 5.80611 44.1696 5.72406 44.0625 5.6625C43.9554 5.60094 43.8372 5.56109 43.7147 5.5452C43.5922 5.52932 43.4677 5.53772 43.3485 5.56993C43.2292 5.60214 43.1175 5.65753 43.0196 5.73293C42.9217 5.80833 42.8397 5.90227 42.7781 6.00937L41.3719 8.4375C41.2476 8.65382 41.2143 8.91066 41.2793 9.15153C41.3444 9.39239 41.5024 9.59755 41.7188 9.72187C41.9351 9.8462 42.1919 9.87949 42.4328 9.81444C42.6736 9.74939 42.8788 9.59132 43.0031 9.375ZM9.375 16.9969L6.94687 15.5906C6.73056 15.4663 6.47371 15.433 6.23285 15.4981C5.99198 15.5631 5.78682 15.7212 5.6625 15.9375C5.53818 16.1538 5.50488 16.4107 5.56993 16.6515C5.63499 16.8924 5.79306 17.0976 6.00937 17.2219L8.4375 18.6281C8.65382 18.7524 8.91066 18.7857 9.15153 18.7207C9.39239 18.6556 9.59755 18.4976 9.72187 18.2812C9.8462 18.0649 9.87949 17.8081 9.81444 17.5672C9.74939 17.3264 9.59132 17.1212 9.375 16.9969ZM54.0094 42.7781L51.5625 41.3719C51.3462 41.2476 51.0893 41.2143 50.8485 41.2793C50.6076 41.3444 50.4024 41.5024 50.2781 41.7188C50.1538 41.9351 50.1205 42.1919 50.1856 42.4328C50.2506 42.6736 50.4087 42.8788 50.625 43.0031L53.0531 44.4094C53.2694 44.5362 53.5273 44.5719 53.7699 44.5086C54.0125 44.4453 54.2201 44.2882 54.3469 44.0719C54.4737 43.8556 54.5094 43.5977 54.4461 43.3551C54.3828 43.1125 54.2257 42.9049 54.0094 42.7781Z" fill="#389DAC"/>
<path d="M47.3438 30C47.3425 29.1994 47.4993 28.4064 47.8051 27.6666C48.1109 26.9267 48.5597 26.2544 49.1258 25.6883C49.6919 25.1222 50.3642 24.6734 51.1041 24.3676C51.8439 24.0618 52.6369 23.905 53.4375 23.9062C51.8213 23.9062 50.2714 23.2642 49.1286 22.1214C47.9858 20.9786 47.3438 19.4287 47.3438 17.8125C47.345 18.6131 47.1882 19.4061 46.8824 20.1459C46.5766 20.8858 46.1278 21.5581 45.5617 22.1242C44.9956 22.6903 44.3233 23.1391 43.5834 23.4449C42.8436 23.7507 42.0506 23.9075 41.25 23.9062C42.8662 23.9062 44.4161 24.5483 45.5589 25.6911C46.7017 26.8339 47.3438 28.3838 47.3438 30Z" fill="#389DAC"/>
</svg>
