<svg width="60" height="60" viewBox="0 0 60 60" fill="none" xmlns="http://www.w3.org/2000/svg">
<g id="Frame">
<path id="Vector" d="M51.0009 4.95843C50.8925 4.68722 50.7043 4.45528 50.4613 4.29326C50.2182 4.13123 49.9318 4.04673 49.6397 4.05093C48.5709 4.12593 46.7212 3.77437 45.8756 4.63687L42.375 7.62562C41.9925 7.95055 41.6853 8.35482 41.4747 8.81037C41.264 9.26593 41.1551 9.76185 41.1553 10.2637V25.1222H49.2694C49.1869 21.4266 47.415 14.5359 46.6875 10.8506C46.6706 10.7646 46.6747 10.6758 46.6995 10.5917C46.7243 10.5077 46.7691 10.4308 46.83 10.3678L50.6794 6.56624C50.8884 6.36165 51.0309 6.09873 51.0881 5.81187C51.1453 5.52501 51.1155 5.22756 51.0009 4.95843ZM41.1563 44.8125V51.6216C41.1563 52.3934 41.3842 53.1481 41.8115 53.7908C42.2388 54.4336 42.8464 54.9359 43.5581 55.2347C44.1595 55.537 44.8279 55.6817 45.5005 55.6551C46.1731 55.6286 46.8279 55.4316 47.4036 55.0828C47.9793 54.734 48.4569 54.2446 48.7918 53.6607C49.1267 53.0768 49.3078 52.4174 49.3181 51.7444V44.8125C48.9487 44.8312 41.1563 44.8125 41.1563 44.8125ZM41.1563 40.3678V42.9206C42.1434 42.9178 48.2372 42.9225 49.3181 42.9206V40.3687L41.1563 40.3678ZM41.1563 35.9128V38.4759C42.1434 38.4731 48.2372 38.4778 49.3181 38.4759V35.9128H41.1563ZM41.1563 31.4681V34.0219C42.1434 34.0181 48.2372 34.0237 49.3181 34.0219V31.4681H41.1563ZM41.1563 27.0131V29.5762C42.1434 29.5734 48.2372 29.5781 49.3181 29.5762V27.0131H41.1563ZM34.1672 50.6475C31.5984 51.3685 28.8674 51.2592 26.3644 50.3353L26.3269 51.3572C26.2935 51.9561 26.3827 52.5556 26.5888 53.1189C26.7949 53.6823 27.1137 54.1977 27.5257 54.6338C27.9377 55.0698 28.4342 55.4172 28.985 55.6549C29.5358 55.8926 30.1292 56.0155 30.7291 56.0162C31.329 56.0168 31.9227 55.8952 32.474 55.6586C33.0253 55.4221 33.5226 55.0757 33.9355 54.6406C34.3484 54.2054 34.6683 53.6907 34.8756 53.1278C35.0829 52.5648 35.1733 51.9656 35.1412 51.3666L35.1037 50.3353C34.7912 50.4491 34.4797 50.5531 34.1672 50.6475ZM34.0819 48.69C34.3944 48.5881 34.7066 48.4716 35.0184 48.3403L34.2806 30.0497C31.9718 29.3461 29.5057 29.3461 27.1969 30.0497L26.4497 48.3403C28.8633 49.395 31.5819 49.5196 34.0819 48.69ZM33.7884 4.40999L31.2356 6.95437C30.3085 7.8827 29.7879 9.14112 29.7881 10.4531V24.015C29.4104 24.0654 29.0393 24.1575 28.6819 24.2897C28.3116 24.4186 27.9881 24.6546 27.7522 24.9677C27.5164 25.2808 27.3789 25.657 27.3572 26.0484L27.2728 28.0537C29.5499 27.4939 31.9291 27.4971 34.2047 28.0631L34.1203 26.0391C34.0791 24.7566 32.8172 24.1153 31.68 24.015V10.4531C31.68 10.0522 31.7594 9.65529 31.9135 9.28521C32.0677 8.91513 32.2935 8.57923 32.5781 8.29687L35.1225 5.74312C35.2944 5.56522 35.3896 5.32688 35.3874 5.07949C35.3853 4.8321 35.286 4.59546 35.111 4.42058C34.936 4.2457 34.6993 4.14659 34.4519 4.14461C34.2045 4.14263 33.9662 4.23794 33.7884 4.40999ZM16.5375 3.52124C6.89812 3.83062 6.11625 17.3869 15.5925 18.8512V24.015C14.445 24.1162 13.1944 24.7575 13.1522 26.0494L13.0678 28.0631C15.0212 27.5601 17.0607 27.4891 19.0444 27.855C19.3666 27.9058 19.6855 27.9753 19.9997 28.0631L19.9153 26.0391C19.875 24.7631 18.6187 24.1172 17.4834 24.015V18.8512C26.9466 17.3859 26.1628 3.82968 16.5384 3.52124H16.5375ZM16.5375 17.0166C14.9991 17.0166 13.5236 16.406 12.4351 15.319C11.3465 14.232 10.7338 12.7574 10.7316 11.2191C10.9987 3.53812 22.0678 3.52968 22.3359 11.2191C22.3344 12.7562 21.7232 14.2299 20.6362 15.3169C19.5493 16.4038 18.0756 17.0151 16.5384 17.0166H16.5375Z" fill="#389DAC"/>
<path id="Vector_2" d="M16.5356 7.51465C16.2848 7.51465 16.0442 7.61431 15.8668 7.79171C15.6894 7.9691 15.5897 8.20971 15.5897 8.46059C15.5897 8.71146 15.6894 8.95207 15.8668 9.12947C16.0442 9.30686 16.2848 9.40652 16.5356 9.40652C17.0155 9.40652 17.4757 9.59715 17.8151 9.93648C18.1544 10.2758 18.345 10.736 18.345 11.2159C18.341 11.3426 18.3625 11.4687 18.4083 11.5869C18.454 11.7051 18.523 11.8129 18.6112 11.9039C18.6994 11.995 18.8049 12.0673 18.9216 12.1167C19.0383 12.1661 19.1638 12.1916 19.2905 12.1916C19.4172 12.1916 19.5427 12.1661 19.6593 12.1167C19.776 12.0673 19.8816 11.995 19.9698 11.9039C20.058 11.8129 20.127 11.7051 20.1727 11.5869C20.2184 11.4687 20.2399 11.3426 20.236 11.2159C20.2355 10.2346 19.8455 9.29358 19.1517 8.5996C18.4579 7.90561 17.517 7.51539 16.5356 7.51465ZM19.9716 50.6565C17.4039 51.3711 14.6779 51.2721 12.1688 50.3734L12.1313 51.3568C12.0979 51.9558 12.1871 52.5552 12.3932 53.1186C12.5993 53.682 12.9181 54.1974 13.3301 54.6334C13.7421 55.0694 14.2386 55.4169 14.7894 55.6546C15.3402 55.8923 15.9336 56.0152 16.5335 56.0158C17.1334 56.0165 17.7271 55.8948 18.2784 55.6583C18.8297 55.4218 19.327 55.0754 19.7399 54.6402C20.1528 54.2051 20.4727 53.6903 20.68 53.1274C20.8873 52.5645 20.9777 51.9652 20.9456 51.3662L20.9081 50.3725C20.596 50.4775 20.2847 50.5815 19.9716 50.6565ZM19.8863 48.7271C20.1985 48.624 20.5106 48.519 20.8228 48.3868L20.0756 30.0493C17.7667 29.3463 15.3008 29.3463 12.9919 30.0493L12.2541 48.3868C14.676 49.406 17.3832 49.5267 19.8863 48.7271Z" fill="#389DAC"/>
</g>
</svg>
