<svg width="60" height="60" viewBox="0 0 60 60" fill="none" xmlns="http://www.w3.org/2000/svg">
<g id="Frame">
<path id="Vector" d="M15.1442 13.2792L37.567 7.1579L36.3796 4.7574C35.6027 3.19707 33.7078 2.55272 32.1476 3.32973L12.0745 13.2792H15.1442ZM44.5276 7.33478C44.2497 7.33478 43.9717 7.37269 43.6938 7.44849L38.4261 8.88879L22.3385 13.2792H48.5574L47.572 9.6658C47.1931 8.25708 45.9172 7.33478 44.5276 7.33478ZM51.8482 15.4902H5.16446C4.16649 15.4902 3.27589 15.9513 2.69479 16.6778C2.42951 17.0126 2.22739 17.398 2.11369 17.8212C2.04421 18.0865 2 18.3645 2 18.6487V53.8414C2 55.585 3.41485 57 5.15814 57H51.8418C53.5852 57 55 55.585 55 53.8414V45.0291H36.2596C33.2972 45.0291 30.8907 42.6222 30.8907 39.6595V32.6349C30.8907 31.1819 31.4717 29.8617 32.4129 28.8952C33.2467 28.036 34.3647 27.4548 35.6153 27.3095C35.8237 27.2843 36.0385 27.2716 36.2532 27.2716H55V18.6487C55.0063 16.9052 53.5915 15.4902 51.8482 15.4902Z" fill="#389DAC"/>
<path id="Vector_2" d="M56.9764 29.8679C56.6624 29.5631 56.2919 29.3312 55.8774 29.1788C55.5571 29.0663 55.218 29 54.8601 29H36.1399C34.4066 29 33 30.4841 33 32.3128V39.6872C33 41.5158 34.4066 43 36.1399 43H54.8601C55.218 43 55.5571 42.9337 55.8774 42.8211C56.2919 42.6753 56.6624 42.4368 56.9764 42.132C57.6044 41.5291 58 40.6545 58 39.6872V32.3128C58 31.3454 57.6044 30.4708 56.9764 29.8679ZM42.6961 36.6592C42.6961 37.5736 41.9927 38.3156 41.1261 38.3156H40.0836C39.217 38.3156 38.5137 37.5736 38.5137 36.6592V35.5594C38.5137 35.0293 38.746 34.5588 39.1166 34.2607C39.3866 34.042 39.7195 33.9029 40.0836 33.9029H41.1261C41.9927 33.9029 42.6961 34.6449 42.6961 35.5594V36.6592Z" fill="#389DAC"/>
</g>
</svg>
